<svg width="36" height="36" viewBox="0 0 36 36" fill="none" xmlns="http://www.w3.org/2000/svg">
<path d="M14.4742 23.5679L27.9532 22.1744C28.3982 22.1285 28.7545 21.7817 28.8115 21.3383L30.0166 11.9606C30.0514 11.6914 29.9707 11.4191 29.7949 11.2132C29.6191 11.0058 29.3642 10.8838 29.0918 10.8743L9.85824 10.2346L8.52966 7.05804C8.39348 6.73025 8.08786 6.50539 7.73473 6.47055L3.08548 6.00499C2.555 5.95115 2.08153 6.33912 2.02927 6.8696C1.97701 7.40008 2.36339 7.87197 2.89388 7.92581L6.97305 8.33278L12.8796 22.4579L12.0134 23.4254C12.0103 23.4286 12.0071 23.4317 12.0039 23.4349C11.5938 23.9068 10.3428 25.3431 10.9477 26.6732C11.5067 27.8989 13.1742 27.9353 13.3626 27.9353H28.2304C28.7624 27.9353 29.1947 27.503 29.1947 26.9709C29.1947 26.4373 28.7624 26.0066 28.2304 26.0066H13.3626C13.1662 26.0066 12.8527 25.9432 12.7213 25.8672C12.7434 25.7453 12.8606 25.389 13.4544 24.7081L14.4742 23.5679ZM21.749 15.853V17.5774L17.8535 17.5822L17.8503 15.8498L21.749 15.853ZM17.8456 14.0636L17.8424 12.431L21.7474 12.5608V14.0667L17.8456 14.0636ZM27.3499 17.5711L23.5368 17.5758V15.8561L27.57 15.8593L27.3499 17.5711ZM21.749 19.3652V20.8759L17.8598 21.2781L17.8567 19.37L21.749 19.3652ZM16.0657 17.5853L12.935 17.5901L12.205 15.845L16.0609 15.8482L16.0657 17.5853ZM16.0689 19.3732L16.0736 21.4634L14.6183 21.6139L13.6825 19.3763L16.0689 19.3732ZM23.5368 20.6922V19.3637L27.1203 19.3589L26.9952 20.3359L23.5368 20.6922ZM27.7996 14.0715L23.5352 14.0683V12.621L27.9675 12.7682L27.7996 14.0715ZM16.0546 12.3708L16.0578 14.062L11.4576 14.0572L10.6769 12.1918L16.0546 12.3708Z" fill="#182B56"/>
<path d="M26.1685 28.5576C24.5723 28.5576 23.2738 29.8561 23.2738 31.4523C23.2738 33.0485 24.5723 34.347 26.1685 34.347C27.7647 34.347 29.0632 33.0485 29.0632 31.4523C29.0632 29.8561 27.7647 28.5576 26.1685 28.5576ZM26.1685 32.4167C25.6364 32.4167 25.2041 31.9844 25.2041 31.4523C25.2041 30.9202 25.6364 30.4879 26.1685 30.4879C26.7006 30.4879 27.1329 30.9202 27.1329 31.4523C27.1329 31.9828 26.7006 32.4167 26.1685 32.4167Z" fill="#182B56"/>
<path d="M13.7474 28.5576C12.1512 28.5576 10.8527 29.8561 10.8527 31.4523C10.8527 33.0485 12.1512 34.347 13.7474 34.347C15.3436 34.347 16.642 33.0485 16.642 31.4523C16.642 29.8561 15.3436 28.5576 13.7474 28.5576ZM13.7474 32.4167C13.2153 32.4167 12.783 31.9844 12.783 31.4523C12.783 30.9202 13.2153 30.4879 13.7474 30.4879C14.2794 30.4879 14.7117 30.9202 14.7117 31.4523C14.7117 31.9828 14.2794 32.4167 13.7474 32.4167Z" fill="#182B56"/>
</svg>
